<?xml version="1.0" encoding="iso-8859-1"?>
<!-- Generator: Adobe Illustrator 19.0.0, SVG Export Plug-In . SVG Version: 6.00 Build 0)  -->
<svg version="1.1" id="Capa_1" xmlns="http://www.w3.org/2000/svg" xmlns:xlink="http://www.w3.org/1999/xlink" x="0px" y="0px"
	 viewBox="0 0 487.622 487.622" style="enable-background:new 0 0 487.622 487.622;" xml:space="preserve">
<g>
	<g>
		<circle style="fill:#D97077;" cx="243.811" cy="243.811" r="243.811"/>
		<path style="fill:#CA6168;" d="M487.622,243.811c0-0.152-0.006-0.303-0.006-0.454l-119.94-122.501l-74.94,81.721l-83.084-83.645
			l-71.729,14.913l-1.5,76.496l72.388,72.47l-88.866,83.955l115.244,120.688c2.864,0.1,5.735,0.168,8.623,0.168
			C378.461,487.622,487.622,378.461,487.622,243.811z"/>
		<g>
			<polygon style="fill:#F5F5F5;" points="367.676,120.856 278.883,121.234 279.065,144.487 328.673,143.898 255.692,218.025 
				272.263,234.34 345.252,160.207 345.435,209.832 368.69,209.652 			"/>
			<polygon style="fill:#F5F5F5;" points="366.766,367.677 366.389,278.884 343.135,279.066 343.723,328.673 269.597,255.693 
				253.282,272.263 327.416,345.252 277.79,345.435 277.97,368.69 			"/>
			<polygon style="fill:#F5F5F5;" points="119.945,366.766 208.738,366.389 208.557,343.136 158.949,343.724 231.93,269.597 
				215.359,253.282 142.37,327.416 142.186,277.79 118.932,277.971 			"/>
			<polygon style="fill:#F5F5F5;" points="120.856,119.945 121.233,208.739 144.487,208.557 143.898,158.949 218.025,231.93 
				234.341,215.359 160.206,142.37 209.832,142.186 209.651,118.932 			"/>
		</g>
	</g>
</g>
<g>
</g>
<g>
</g>
<g>
</g>
<g>
</g>
<g>
</g>
<g>
</g>
<g>
</g>
<g>
</g>
<g>
</g>
<g>
</g>
<g>
</g>
<g>
</g>
<g>
</g>
<g>
</g>
<g>
</g>
</svg>
